<?xml version="1.0" encoding="UTF-8"?><svg id="a" xmlns="http://www.w3.org/2000/svg" width="282" height="49" viewBox="0 0 282 49"><polygon points="6.22 34.16 .99 39.39 .99 42.71 47.05 42.71 47.05 34.16 6.22 34.16" fill="#153e82"/><polygon points="11.62 28.8 11.62 32.02 47.05 32.02 47.05 23.45 16.96 23.45 11.62 28.8" fill="#153e82"/><polygon points="22.38 18.06 22.38 21.3 47.05 21.3 47.05 12.78 27.69 12.78 22.38 18.06" fill="#153e82"/><polygon points="33.12 10.63 47.05 10.63 47.05 2.06 38.45 2.06 33.12 7.37 33.12 10.63" fill="#153e82"/><rect x=".99" y="44.86" width="192.15" height="2.14" fill="#ebaa00"/><path d="M66.2,19.57c-2.38-.14-4.51-.37-6.41-.68-1.91-.31-3.52-.75-4.83-1.33s-2.34-1.3-3.05-2.17c-.72-.88-1.07-1.95-1.07-3.18,0-1.61.45-3.05,1.36-4.3.91-1.28,2.24-2.32,3.98-3.2,1.75-.88,3.88-1.54,6.44-2.01,2.55-.45,5.47-.7,8.78-.7,2.16,0,4.2.07,6.14.23,1.95.16,3.75.33,5.44.54,1.7.21,3.26.45,4.69.72s2.73.5,3.88.75l-.62,7.6c-2.64-.44-5.65-.88-9.03-1.31s-7.16-.7-11.33-.77c-1.7,0-3.03.13-3.98.35-.96.23-1.43.68-1.43,1.36.05.6.47,1.02,1.28,1.26s1.95.4,3.41.45l7.77.52c5.11.28,8.91,1.05,11.39,2.31,2.48,1.28,3.73,3.01,3.73,5.21,0,1.61-.33,3.05-.98,4.29-.65,1.26-1.74,2.32-3.23,3.2-1.51.89-3.5,1.56-5.97,2.03-2.48.45-5.55.7-9.17.7s-6.65-.1-9.07-.28c-2.42-.19-4.45-.42-6.12-.7-1.66-.28-3.12-.55-4.32-.84-1.2-.28-2.43-.54-3.67-.75l.29-7.65c.7.16,1.57.33,2.64.5,1.05.18,2.22.35,3.49.5,1.28.16,2.61.31,4.03.47s2.86.28,4.32.4c1.46.12,2.91.23,4.32.31s2.74.14,4.01.16c2.08.03,3.67-.1,4.77-.39s1.62-.77,1.57-1.45c-.02-.21-.1-.42-.23-.6-.14-.18-.37-.33-.72-.47-.33-.14-.83-.24-1.46-.35-.63-.08-1.43-.18-2.43-.23l-8.65-.58h0l-.02.05h.04l.02.03ZM105.93,13.85l10.43,17.17h11.55l10.36-17.04v17.04h11.75V2.38h-15.76l-12.09,18.97-12.15-18.97h-15.84v28.62h11.75V13.85h0ZM167.87,19.57l8.65.58c.99.05,1.8.14,2.43.23s1.12.21,1.46.35.58.29.72.47.21.37.23.6c.05.68-.47,1.17-1.57,1.45s-2.69.42-4.77.39c-1.26-.02-2.61-.08-4.01-.16-1.41-.08-2.86-.19-4.32-.31-1.47-.13-2.91-.26-4.32-.4-1.41-.16-2.76-.31-4.04-.47s-2.43-.33-3.49-.5-1.93-.35-2.63-.5l-.29,7.65c1.22.23,2.45.47,3.67.75,1.2.28,2.66.55,4.32.84,1.67.26,3.71.5,6.12.7,2.42.19,5.42.28,9.07.28s6.69-.23,9.17-.7c2.48-.45,4.48-1.14,5.97-2.03,1.51-.89,2.58-1.96,3.23-3.2.65-1.26.98-2.68.98-4.29,0-2.21-1.25-3.94-3.73-5.21-2.48-1.26-6.28-2.03-11.39-2.31l-7.77-.52c-1.47-.05-2.61-.21-3.41-.45s-1.22-.67-1.28-1.26c0-.68.47-1.14,1.43-1.36.96-.23,2.27-.35,3.98-.35,4.17.08,7.95.35,11.33.77,3.38.44,6.39.88,9.03,1.31l.62-7.6c-1.15-.24-2.47-.49-3.88-.75-1.43-.26-2.99-.5-4.69-.72-1.7-.21-3.52-.4-5.44-.54-1.95-.16-3.99-.23-6.14-.23-3.29,0-6.23.23-8.78.7-2.55.47-4.71,1.14-6.46,2.01-1.74.88-3.07,1.95-3.98,3.2-.91,1.28-1.36,2.71-1.36,4.3,0,1.26.35,2.31,1.07,3.18.72.88,1.74,1.59,3.05,2.17,1.33.58,2.94,1.02,4.83,1.33,1.91.31,4.04.54,6.41.68h0l.03-.05h-.03l-.02-.03Z" fill="#153e82"/><polygon points="53.7 40.56 53.7 39.23 61.22 39.23 61.38 39.23 61.38 39.08 61.38 37.25 61.38 37.1 61.22 37.1 53.7 37.1 53.7 35.85 63.9 35.85 64.06 35.85 64.06 35.7 64.06 33.8 64.06 33.64 63.9 33.64 50.72 33.64 50.57 33.64 50.57 33.8 50.57 42.6 50.57 42.76 50.72 42.76 64.01 42.76 64.16 42.76 64.16 42.6 64.16 40.72 64.16 40.56 64.01 40.56 53.7 40.56" fill="#153e82"/><path d="M80.34,41.77c1.36-.77,2.05-1.93,2.05-3.55,0-1.75-1.09-4.71-8.29-4.71-5.55,0-8.26,1.54-8.26,4.71s2.69,4.67,8.26,4.67c1.33,0,2.47-.08,3.46-.24l2.91,1.87.07.05.08-.03,2.17-1.04.26-.13-.26-.16-2.47-1.45h.02-.01.01ZM74.1,35.72c3.39,0,5.04.83,5.04,2.5s-1.64,2.48-5.04,2.48-5.02-.81-5.02-2.48,1.64-2.5,5.02-2.5Z" fill="#153e82"/><path d="M95.88,33.64h-.16v4.82c0,1.51-1.22,2.17-4.09,2.24-2.94-.07-4.3-.79-4.3-2.24v-4.82h-3.13v4.71c0,3.1,2.4,4.53,7.55,4.53s7.14-1.4,7.14-4.53v-4.71h-3.01Z" fill="#153e82"/><polygon points="101.57 33.64 101.41 33.64 101.41 33.8 101.41 42.6 101.41 42.76 101.57 42.76 104.4 42.76 104.56 42.76 104.56 42.6 104.56 33.8 104.56 33.64 104.4 33.64 101.57 33.64" fill="#153e82"/><path d="M116.69,33.64h-9.35v9.12h3.13v-2.31h6.23c3.01,0,4.72-1.25,4.72-3.41s-1.77-3.41-4.72-3.41l-.02.02h.01,0ZM118.28,37.11c-.03.52-.29,1.14-1.89,1.14h-5.94v-2.34h5.94c.75,0,1.31.18,1.62.49.19.19.28.44.26.72h.01,0Z" fill="#153e82"/><polygon points="138.37 33.64 138.3 33.64 138.25 33.7 132.93 40.41 127.44 33.7 127.39 33.64 127.33 33.64 123.68 33.64 123.53 33.64 123.53 33.8 123.53 42.6 123.53 42.76 123.68 42.76 126.34 42.76 126.5 42.76 126.5 42.6 126.5 36.4 131.5 42.71 131.56 42.76 131.63 42.76 134.24 42.76 134.32 42.76 134.38 42.71 139.14 36.5 139.14 42.6 139.14 42.76 139.29 42.76 141.97 42.76 142.13 42.76 142.13 42.6 142.13 33.8 142.13 33.64 141.97 33.64 138.37 33.64" fill="#153e82"/><polygon points="147.94 40.56 147.94 39.23 155.47 39.23 155.62 39.23 155.62 39.08 155.62 37.25 155.62 37.1 155.47 37.1 147.94 37.1 147.94 35.85 158.15 35.85 158.3 35.85 158.3 35.7 158.3 33.8 158.3 33.64 158.15 33.64 144.97 33.64 144.81 33.64 144.81 33.8 144.81 42.6 144.81 42.76 144.97 42.76 158.25 42.76 158.41 42.76 158.41 42.6 158.41 40.72 158.41 40.56 158.25 40.56 147.94 40.56" fill="#153e82"/><polygon points="173.17 33.64 173.01 33.64 173.01 33.8 173.01 40.23 164.17 33.69 164.12 33.64 164.07 33.64 160.72 33.64 160.56 33.64 160.56 33.8 160.56 42.6 160.56 42.76 160.72 42.76 163.55 42.76 163.7 42.76 163.7 42.6 163.7 36.24 172.47 42.73 172.51 42.76 172.56 42.76 176 42.76 176.16 42.76 176.16 42.6 176.16 33.8 176.16 33.64 176 33.64 173.17 33.64" fill="#153e82"/><polygon points="192.98 33.64 177.77 33.64 177.62 33.64 177.62 33.8 177.62 35.7 177.62 35.85 177.77 35.85 183.6 35.85 183.6 42.6 183.6 42.76 183.76 42.76 186.58 42.76 186.73 42.76 186.73 42.6 186.73 35.85 192.98 35.85 193.14 35.85 193.14 35.7 193.14 33.8 193.14 33.64 192.98 33.64" fill="#153e82"/><path d="M205.96,13.21c1.19,0,2.06.21,2.66.63s.88,1.07.88,1.96c0,.83-.28,1.45-.86,1.89-.55.44-1.33.67-2.27.67h-.84v2.76h-2.1v-7.91s2.53,0,2.53,0ZM207.39,15.79c0-.72-.44-1.07-1.31-1.07h-.52v2.16h.52c.89,0,1.33-.37,1.33-1.09h-.02Z" fill="#153e82"/><path d="M211.75,19.45l-.63,1.7h-2.14l3.01-7.91h2.59l3.05,7.91h-2.31l-.6-1.7h-2.97,0ZM212.24,17.94h1.98l-.94-3.1h-.02l-1.02,3.1h0Z" fill="#153e82"/><path d="M220.68,18.01h-.4v3.13h-2.1v-7.91h3.73c.81,0,1.43.18,1.89.52s.7.84.7,1.47c0,.52-.13.96-.39,1.31s-.63.58-1.14.68h0c.18.07.33.14.44.26.1.1.21.26.28.44.08.18.19.47.33.88l.84,2.34h-2.21l-.5-1.56c-.14-.45-.28-.81-.42-1.04s-.28-.37-.44-.44-.37-.1-.62-.1v.02h.01ZM222.38,15.6c0-.31-.13-.54-.39-.68s-.65-.19-1.15-.19h-.54v1.79h.67c.45,0,.83-.07,1.07-.19s.37-.37.37-.72h-.03Z" fill="#153e82"/><path d="M224.98,14.79v-1.56h6v1.56h-1.95v6.35h-2.1v-6.35h-1.96.01Z" fill="#153e82"/><path d="M233.79,15.71l.07,5.41h-1.95v-7.91h2.69l2.68,5.37h.02l-.03-5.37h1.93v7.91h-2.63l-2.76-5.41s-.02,0-.02,0Z" fill="#153e82"/><path d="M246.23,13.21v1.51h-3.46v1.62h3.28v1.49h-3.28v1.79h3.59v1.51h-5.71v-7.91h5.58Z" fill="#153e82"/><path d="M250.08,18.01h-.4v3.13h-2.1v-7.91h3.73c.81,0,1.43.18,1.89.52s.7.84.7,1.47c0,.52-.13.96-.39,1.31-.24.35-.63.58-1.14.68h0c.18.07.33.14.44.26.1.1.21.26.28.44.08.18.19.47.33.88l.84,2.34h-2.21l-.49-1.56c-.14-.45-.28-.81-.42-1.04s-.28-.37-.44-.44-.37-.1-.62-.1h-.02v.02h.02ZM251.78,15.6c0-.31-.13-.54-.39-.68s-.65-.19-1.15-.19h-.54v1.79h.67c.45,0,.83-.07,1.07-.19s.37-.37.37-.72h-.03Z" fill="#153e82"/><path d="M257.39,19.71c.45,0,.79-.07.99-.19.21-.13.31-.31.31-.58s-.1-.45-.31-.6-.57-.28-1.07-.44c-.5-.14-.94-.29-1.28-.49-.33-.18-.6-.42-.79-.72s-.29-.7-.29-1.19c0-.79.29-1.38.91-1.8s1.46-.63,2.53-.63c.37,0,.72.03,1.09.08.35.05.68.13.94.21l-.14,1.62c-.52-.24-1.12-.37-1.75-.37-.47,0-.83.05-1.07.18s-.35.29-.35.55c0,.18.07.31.19.42s.29.19.49.26.49.16.88.26c.77.21,1.33.5,1.67.88.33.37.5.86.5,1.45,0,.86-.29,1.51-.89,1.95s-1.46.67-2.59.67c-.39,0-.77-.03-1.19-.08s-.81-.14-1.17-.26l.18-1.75c.65.35,1.36.52,2.17.52l.02.03h-.01l.03.02Z" fill="#153e82"/><path d="M205.74,24.01v7.91h-2.1v-7.91h2.1Z" fill="#153e82"/><path d="M209.23,26.53l.07,5.41h-1.95v-7.91h2.69l2.68,5.37h.02l-.03-5.37h1.93v7.91h-2.63l-2.76-5.41s-.02,0-.02,0Z" fill="#153e82"/><path d="M219,24.01h2.43l1.56,3.17,1.52-3.17h2.43l-2.91,4.93v2.97h-2.1v-2.97l-2.92-4.93h-.02.02,0Z" fill="#153e82"/><path d="M226.83,27.98c0-1.3.35-2.31,1.04-3.03.7-.72,1.66-1.07,2.92-1.07s2.24.35,2.94,1.07c.68.72,1.04,1.72,1.04,3.03s-.35,2.29-1.04,3.01c-.7.72-1.66,1.09-2.92,1.09s-2.22-.37-2.92-1.09-1.05-1.72-1.05-3.01h0ZM232.58,27.98c0-.79-.16-1.41-.47-1.85s-.75-.67-1.33-.67-1.02.23-1.31.67c-.31.44-.47,1.07-.47,1.87,0,.75.16,1.36.47,1.84.31.47.75.7,1.33.7s.99-.23,1.31-.7c.31-.45.47-1.07.47-1.84v-.02Z" fill="#153e82"/><path d="M242.54,28.95c0,.99-.29,1.77-.91,2.31-.6.54-1.46.81-2.58.81s-1.98-.28-2.58-.83-.89-1.31-.89-2.29v-4.93h2.1v4.56c0,1.28.45,1.91,1.36,1.91s1.36-.63,1.36-1.89v-4.58h2.1v4.93h.04Z" fill="#153e82"/><path d="M246.35,28.8h-.4v3.13h-2.1v-7.91h3.73c.81,0,1.43.18,1.89.52s.7.84.7,1.47c0,.52-.13.96-.39,1.31-.24.35-.63.58-1.14.68h0c.18.07.33.14.44.26.1.1.21.26.28.44.08.18.19.47.33.88l.84,2.34h-2.21l-.49-1.56c-.14-.45-.28-.81-.42-1.04s-.28-.37-.44-.44-.37-.1-.62-.1h-.02v.02h.02ZM248.06,26.39c0-.31-.13-.54-.39-.68s-.65-.19-1.15-.19h-.54v1.79h.67c.45,0,.83-.07,1.07-.19s.37-.37.37-.72h-.03Z" fill="#153e82"/><path d="M205.96,34.82c1.19,0,2.06.21,2.66.63s.88,1.07.88,1.96c0,.83-.28,1.45-.86,1.89-.55.44-1.33.67-2.27.67h-.84v2.76h-2.1v-7.91s2.53,0,2.53,0ZM207.39,37.37c0-.72-.44-1.07-1.31-1.07h-.52v2.16h.52c.89,0,1.33-.37,1.33-1.09h-.02Z" fill="#153e82"/><path d="M210.18,38.77c0-1.3.35-2.31,1.04-3.03.7-.72,1.66-1.07,2.92-1.07s2.24.35,2.94,1.07c.68.72,1.04,1.72,1.04,3.03s-.35,2.29-1.04,3.01c-.7.72-1.66,1.09-2.92,1.09s-2.22-.37-2.92-1.09-1.05-1.72-1.05-3.01h0ZM215.94,38.77c0-.79-.16-1.41-.47-1.85s-.75-.67-1.33-.67-1.02.23-1.31.67-.47,1.07-.47,1.87c0,.75.16,1.36.47,1.84.31.47.75.7,1.33.7s.99-.23,1.31-.7.47-1.07.47-1.84v-.02Z" fill="#153e82"/><path d="M221.49,41.32c.45,0,.79-.07.99-.19s.31-.31.31-.58-.1-.45-.31-.6-.55-.28-1.07-.44c-.5-.14-.94-.29-1.28-.49-.33-.18-.6-.42-.79-.72s-.29-.7-.29-1.19c0-.79.29-1.38.91-1.8s1.46-.63,2.53-.63c.37,0,.72.03,1.09.08.35.05.68.13.94.21l-.14,1.62c-.52-.24-1.12-.37-1.75-.37-.47,0-.83.05-1.07.18s-.35.29-.35.55c0,.18.07.31.19.42s.29.19.49.26c.19.07.49.16.88.26.77.21,1.33.5,1.67.88.33.37.5.86.5,1.45,0,.86-.29,1.51-.89,1.95-.6.44-1.46.67-2.59.67-.39,0-.77-.03-1.19-.08-.42-.05-.81-.14-1.17-.26l.18-1.75c.65.35,1.36.52,2.17.52l.02.03h0l.03.02Z" fill="#153e82"/><path d="M228.4,41.32c.45,0,.79-.07.99-.19.21-.13.31-.31.31-.58s-.1-.45-.31-.6-.57-.28-1.07-.44c-.5-.14-.94-.29-1.28-.49-.33-.18-.6-.42-.79-.72s-.29-.7-.29-1.19c0-.79.29-1.38.91-1.8s1.46-.63,2.53-.63c.37,0,.72.03,1.09.08.35.05.68.13.94.21l-.14,1.62c-.52-.24-1.12-.37-1.75-.37-.47,0-.83.05-1.07.18s-.35.29-.35.55c0,.18.07.31.19.42s.29.19.49.26c.19.07.49.16.88.26.77.21,1.33.5,1.67.88.33.37.5.86.5,1.45,0,.86-.29,1.51-.89,1.95s-1.46.67-2.59.67c-.39,0-.77-.03-1.19-.08s-.81-.14-1.17-.26l.18-1.75c.65.35,1.36.52,2.17.52l.02.03h0l.03.02Z" fill="#153e82"/><path d="M235.35,34.82v7.91h-2.1v-7.91h2.1Z" fill="#153e82"/><path d="M240.49,34.82c.83,0,1.46.18,1.91.52.45.35.68.84.68,1.49,0,.93-.47,1.54-1.4,1.85h0c1.07.24,1.59.83,1.59,1.77,0,.77-.26,1.35-.81,1.74-.54.37-1.3.55-2.27.55h-3.33v-7.91h3.62v-.02h.01ZM240.98,37.11c0-.33-.13-.54-.37-.65-.24-.1-.57-.14-.93-.14h-.7v1.62h.7c.35,0,.65-.07.91-.19.26-.13.39-.35.39-.65h0ZM241.17,40.31c0-.35-.13-.6-.39-.73s-.65-.21-1.14-.21h-.67v1.85h.7c.6,0,.99-.08,1.2-.26s.31-.39.31-.67l-.03.02h.02Z" fill="#153e82"/><path d="M246.7,34.82v7.91h-2.1v-7.91h2.1Z" fill="#153e82"/><path d="M250.38,34.82v6.35h3.28v1.56h-5.37v-7.91h2.1-.01Z" fill="#153e82"/><path d="M256.8,34.82v7.91h-2.1v-7.91h2.1Z" fill="#153e82"/><path d="M257.79,36.38v-1.56h6v1.56h-1.95v6.35h-2.1v-6.35h-1.96.01Z" fill="#153e82"/><path d="M266.89,34.82v7.91h-2.1v-7.91h2.1Z" fill="#153e82"/><path d="M273.98,34.82v1.51h-3.46v1.62h3.28v1.49h-3.28v1.79h3.59v1.51h-5.71v-7.91h5.58Z" fill="#153e82"/><path d="M277.56,41.32c.45,0,.79-.07.99-.19.21-.13.31-.31.31-.58s-.1-.45-.31-.6-.57-.28-1.07-.44c-.5-.14-.94-.29-1.28-.49-.33-.18-.6-.42-.79-.72s-.29-.7-.29-1.19c0-.79.29-1.38.91-1.8s1.46-.63,2.53-.63c.37,0,.72.03,1.09.08.35.05.68.13.94.21l-.14,1.62c-.52-.24-1.12-.37-1.75-.37-.47,0-.83.05-1.07.18s-.35.29-.35.55c0,.18.07.31.19.42s.29.19.49.26c.19.07.49.16.88.26.77.21,1.33.5,1.67.88.33.37.5.86.5,1.45,0,.86-.29,1.51-.89,1.95s-1.46.67-2.59.67c-.39,0-.77-.03-1.19-.08s-.81-.14-1.17-.26l.18-1.75c.65.35,1.36.52,2.17.52l.02.03h-.01l.03.02Z" fill="#153e82"/></svg>